.
..............................Site Info...........................

 -   http://www.scenetime.com  *_*   

SceneTime is going to Close sign up on march/1, hurry up! get in before the doors are closed.

     We care to share . Join us on  http://www.scenetime.com 

    Be the first to get new release at  http://www.scenetime.com

        Seed back for speed


...................................NFO:.................................................[IMG]http://i.imgur.com/2mcr9.png[/IMG]

 
TITLE: 

Columbus Circle 2012 DVDRiP AC3 XViD - INSPiRAL

IMDB: 
 
http://www.imdb.com/title/tt1465533/


SOURCES:

VIDEO - Columbus Circle 2012 DVDR PAL Retail DD5 1 MultiSubs  THANKS
AUDIO - Columbus Circle 2012 DVDR PAL Retail DD5 1 MultiSubs  THANKS
SUBS  - None Add

STATS:

Video
ID                               : 0
Format                           : MPEG-4 Visual
Format profile                   : Advanced Simple@L5
Format settings, BVOP            : 2
Format settings, QPel            : No
Format settings, GMC             : No warppoints
Format settings, Matrix          : Default (MPEG)
Muxing mode                      : Packed bitstream
Codec ID                         : XVID
Codec ID/Hint                    : XviD
Duration                         : 1h 22mn
Bit rate                         : 1 932 Kbps
Width                            : 720 pixels
Height                           : 288 pixels
Display aspect ratio             : 2.500
Frame rate                       : 25.000 fps
Color space                      : YUV
Chroma subsampling               : 4:2:0
Bit depth                        : 8 bits
Scan type                        : Progressive
Compression mode                 : Lossy
Bits/(Pixel*Frame)               : 0.373
Stream size                      : 1.11 GiB (81%)
Writing library                  : XviD 64

Audio
ID                               : 1
Format                           : AC-3
Format/Info                      : Audio Coding 3
Mode extension                   : CM (complete main)
Codec ID                         : 2000
Duration                         : 1h 22mn
Bit rate mode                    : Constant
Bit rate                         : 448 Kbps
Channel(s)                       : 6 channels
Channel positions                : Front: L C R, Side: L R, LFE
Sampling rate                    : 48.0 KHz
Bit depth                        : 16 bits
Compression mode                 : Lossy
Stream size                      : 264 MiB (19%)
Alignment                        : Aligned on interleaves
Interleave, duration             : 40 ms (1.00 video frame)
Interleave, preload duration     : 512 ms




NOTES:

Pretty straight forward rip but did tweak it,cropped the borders but also cropped 4 pixels extra across the bottom as there
was a faint line i noticed in megui 4 pixels above the black border,so removed that aswell.
Also added more contrast,touch more chroma,resized and finally sharpened it a touch more.
Audio just a strip and remux job.
For those that think ....why mess with retail releases FFS,well check the sample and then check the vobs and you'll see why.
Enjoy folks :)

SCREENS:

[IMG]http://i.imgur.com/7ZLbI.png[/IMG]
[IMG]http://i.imgur.com/LLWtk.png[/IMG]
[IMG]http://i.imgur.com/LYLOD.png[/IMG]
[IMG]http://i.imgur.com/lTs5B.png[/IMG]


GREETZ: 

Past,Present and Future

[IMG]http://i.imgur.com/2mcr9.png[/IMG]